<mxfile host="65bd71144e">
    <diagram id="eNtGyqN4dOYOyLzAcSKM" name="Page-1">
        <mxGraphModel dx="1204" dy="790" grid="1" gridSize="10" guides="1" tooltips="1" connect="1" arrows="1" fold="1" page="1" pageScale="1" pageWidth="827" pageHeight="1169" math="0" shadow="0">
            <root>
                <mxCell id="0"/>
                <mxCell id="1" parent="0"/>
                <mxCell id="7" value="&lt;font style=&quot;font-size: 25px&quot;&gt;&lt;span style=&quot;box-sizing: border-box ; font-weight: bolder ; color: rgb(255 , 255 , 255) ; font-family: &amp;#34;roboto slab&amp;#34; , serif&quot;&gt;Genre:&lt;/span&gt;&lt;span style=&quot;color: rgb(255 , 255 , 255) ; font-family: &amp;#34;roboto slab&amp;#34; , serif&quot;&gt;&amp;nbsp;Militaire&lt;/span&gt;&lt;br style=&quot;box-sizing: border-box ; color: rgb(255 , 255 , 255) ; font-family: &amp;#34;roboto slab&amp;#34; , serif&quot;&gt;&lt;span style=&quot;box-sizing: border-box ; font-weight: bolder ; color: rgb(255 , 255 , 255) ; font-family: &amp;#34;roboto slab&amp;#34; , serif&quot;&gt;Inspiration: &lt;/span&gt;&lt;span style=&quot;box-sizing: border-box ; color: rgb(255 , 255 , 255) ; font-family: &amp;#34;roboto slab&amp;#34; , serif&quot;&gt;Tireur d'élite américain&lt;/span&gt;&lt;br style=&quot;box-sizing: border-box ; color: rgb(255 , 255 , 255) ; font-family: &amp;#34;roboto slab&amp;#34; , serif&quot;&gt;&lt;span style=&quot;box-sizing: border-box ; color: rgb(255 , 255 , 255) ; font-family: &amp;#34;roboto slab&amp;#34; , serif&quot;&gt;&lt;span style=&quot;font-weight: bolder&quot;&gt;Nom:&amp;nbsp;&lt;/span&gt;Ligne de mire&lt;/span&gt;&lt;/font&gt;" style="text;html=1;align=center;verticalAlign=middle;resizable=0;points=[];autosize=1;strokeColor=none;fillColor=none;" parent="1" vertex="1">
                    <mxGeometry x="55" y="115" width="380" height="60" as="geometry"/>
                </mxCell>
                <mxCell id="9" value="" style="rounded=0;whiteSpace=wrap;html=1;labelBackgroundColor=none;fillColor=#604E3D;" parent="1" vertex="1">
                    <mxGeometry x="75" y="250" width="60" height="60" as="geometry"/>
                </mxCell>
                <mxCell id="10" value="" style="rounded=0;whiteSpace=wrap;html=1;labelBackgroundColor=none;fillColor=#7f6950;" parent="1" vertex="1">
                    <mxGeometry x="215" y="250" width="60" height="60" as="geometry"/>
                </mxCell>
                <mxCell id="11" value="&lt;div style=&quot;font-size: 12px;&quot;&gt;&lt;span style=&quot;font-size: 12px;&quot;&gt;première couleur de fond&lt;/span&gt;&lt;/div&gt;" style="text;html=1;strokeColor=none;fillColor=none;align=center;verticalAlign=middle;whiteSpace=wrap;rounded=0;labelBackgroundColor=none;fontSize=12;" parent="1" vertex="1">
                    <mxGeometry x="60" y="210" width="90" height="30" as="geometry"/>
                </mxCell>
                <mxCell id="12" value="&lt;div style=&quot;font-size: 12px;&quot;&gt;&lt;span style=&quot;font-size: 12px;&quot;&gt;deuxième couleur de fond&lt;/span&gt;&lt;/div&gt;" style="text;html=1;strokeColor=none;fillColor=none;align=center;verticalAlign=middle;whiteSpace=wrap;rounded=0;labelBackgroundColor=none;fontSize=12;spacingBottom=-1;" parent="1" vertex="1">
                    <mxGeometry x="200" y="210" width="90" height="30" as="geometry"/>
                </mxCell>
                <mxCell id="13" value="&lt;div style=&quot;font-size: 12px;&quot;&gt;&lt;span style=&quot;font-size: 12px;&quot;&gt;&lt;font style=&quot;font-size: 12px;&quot;&gt;couleur du texte&lt;/font&gt;&lt;/span&gt;&lt;/div&gt;" style="text;html=1;strokeColor=none;fillColor=none;align=center;verticalAlign=middle;whiteSpace=wrap;rounded=0;labelBackgroundColor=none;fontSize=12;" parent="1" vertex="1">
                    <mxGeometry x="340" y="210" width="80" height="30" as="geometry"/>
                </mxCell>
                <mxCell id="14" value="" style="rounded=0;whiteSpace=wrap;html=1;labelBackgroundColor=none;fillColor=#FFFFFF;fontColor=#FFFFFF;" parent="1" vertex="1">
                    <mxGeometry x="350" y="250" width="60" height="60" as="geometry"/>
                </mxCell>
                <mxCell id="15" value="" style="rounded=0;whiteSpace=wrap;html=1;labelBackgroundColor=none;fillColor=#F7F7F7;" parent="1" vertex="1">
                    <mxGeometry x="142" y="381" width="60" height="60" as="geometry"/>
                </mxCell>
                <mxCell id="17" value="couleur des boutons" style="text;html=1;strokeColor=none;fillColor=none;align=center;verticalAlign=middle;whiteSpace=wrap;rounded=0;labelBackgroundColor=none;fontSize=12;" parent="1" vertex="1">
                    <mxGeometry x="127" y="340" width="90" height="30" as="geometry"/>
                </mxCell>
                <mxCell id="19" value="couleur des boutons survolés" style="text;html=1;strokeColor=none;fillColor=none;align=center;verticalAlign=middle;whiteSpace=wrap;rounded=0;labelBackgroundColor=none;fontSize=12;" parent="1" vertex="1">
                    <mxGeometry x="270" y="340" width="100" height="30" as="geometry"/>
                </mxCell>
                <mxCell id="20" value="" style="rounded=0;whiteSpace=wrap;html=1;labelBackgroundColor=none;fillColor=#dddddd;" parent="1" vertex="1">
                    <mxGeometry x="290" y="381" width="60" height="60" as="geometry"/>
                </mxCell>
                <mxCell id="26" style="edgeStyle=none;html=1;exitX=1;exitY=0.5;exitDx=0;exitDy=0;entryX=0;entryY=0.5;entryDx=0;entryDy=0;fontSize=12;fontColor=#FFFFFF;" parent="1" source="21" target="25" edge="1">
                    <mxGeometry relative="1" as="geometry"/>
                </mxCell>
                <mxCell id="27" value="aller au campement" style="edgeLabel;html=1;align=center;verticalAlign=middle;resizable=0;points=[];fontSize=12;fontColor=default;spacingLeft=20;spacingRight=28;spacingTop=0;spacing=2;spacingBottom=25;labelBackgroundColor=none;" parent="26" vertex="1" connectable="0">
                    <mxGeometry x="0.3967" y="-4" relative="1" as="geometry">
                        <mxPoint x="-31" as="offset"/>
                    </mxGeometry>
                </mxCell>
                <mxCell id="33" style="edgeStyle=none;html=1;exitX=0.5;exitY=1;exitDx=0;exitDy=0;entryX=0.5;entryY=0;entryDx=0;entryDy=0;fontSize=12;fontColor=#FFFFFF;" parent="1" source="21" target="22" edge="1">
                    <mxGeometry relative="1" as="geometry"/>
                </mxCell>
                <mxCell id="34" value="y aller" style="edgeLabel;html=1;align=center;verticalAlign=middle;resizable=0;points=[];fontSize=12;fontColor=default;labelBackgroundColor=none;" parent="33" vertex="1" connectable="0">
                    <mxGeometry x="-0.2558" y="1" relative="1" as="geometry">
                        <mxPoint as="offset"/>
                    </mxGeometry>
                </mxCell>
                <mxCell id="21" value="&lt;font style=&quot;font-size: 12px&quot;&gt;Vous êtes tout de suite demandé en renfort pour sauver des troupes alliés.&lt;/font&gt;" style="rhombus;whiteSpace=wrap;html=1;labelBackgroundColor=none;fillColor=#FFFFFF;labelBorderColor=none;fontColor=#000000;fontSize=12;spacingLeft=20;spacingRight=20;rounded=1;" parent="1" vertex="1">
                    <mxGeometry x="650" y="210" width="200" height="150" as="geometry"/>
                </mxCell>
                <mxCell id="37" style="edgeStyle=none;html=1;exitX=0.5;exitY=1;exitDx=0;exitDy=0;entryX=0.5;entryY=0;entryDx=0;entryDy=0;fontSize=12;fontColor=#FFFFFF;" parent="1" source="22" target="36" edge="1">
                    <mxGeometry relative="1" as="geometry"/>
                </mxCell>
                <mxCell id="22" value="Vous vous retrouvez en plein champ de bataille." style="rounded=1;whiteSpace=wrap;html=1;labelBackgroundColor=none;fillColor=#FFFFFF;fontColor=#000000;spacingLeft=12;spacingRight=12;" parent="1" vertex="1">
                    <mxGeometry x="670" y="410" width="160" height="120" as="geometry"/>
                </mxCell>
                <mxCell id="32" style="edgeStyle=none;html=1;exitX=1;exitY=0.5;exitDx=0;exitDy=0;entryX=1;entryY=0.5;entryDx=0;entryDy=0;fontSize=12;fontColor=#FFFFFF;" parent="1" source="25" target="29" edge="1">
                    <mxGeometry relative="1" as="geometry">
                        <Array as="points">
                            <mxPoint x="1290" y="285"/>
                            <mxPoint x="1290" y="100"/>
                        </Array>
                    </mxGeometry>
                </mxCell>
                <mxCell id="25" value="Votre campement se fait bombarder. Vous mourrez lors de l'attaque.&amp;nbsp;" style="rounded=1;whiteSpace=wrap;html=1;labelBackgroundColor=none;fillColor=#FFFFFF;fontColor=#000000;spacingLeft=10;spacingRight=10;" parent="1" vertex="1">
                    <mxGeometry x="1011" y="225" width="160" height="120" as="geometry"/>
                </mxCell>
                <mxCell id="31" style="edgeStyle=none;html=1;exitX=0.5;exitY=1;exitDx=0;exitDy=0;entryX=0.5;entryY=0;entryDx=0;entryDy=0;fontSize=12;fontColor=#FFFFFF;" parent="1" source="29" target="21" edge="1">
                    <mxGeometry relative="1" as="geometry"/>
                </mxCell>
                <mxCell id="29" value="Vous sortez d'un avion militaire." style="rounded=1;whiteSpace=wrap;html=1;labelBackgroundColor=none;fillColor=#FFFFFF;fontColor=#000000;" parent="1" vertex="1">
                    <mxGeometry x="670" y="40" width="160" height="120" as="geometry"/>
                </mxCell>
                <mxCell id="47" style="edgeStyle=none;html=1;exitX=0;exitY=0.5;exitDx=0;exitDy=0;entryX=1;entryY=0.5;entryDx=0;entryDy=0;fontSize=12;fontColor=#FFFFFF;" parent="1" source="36" target="46" edge="1">
                    <mxGeometry relative="1" as="geometry"/>
                </mxCell>
                <mxCell id="48" value="tuer l'enfant" style="edgeLabel;html=1;align=center;verticalAlign=middle;resizable=0;points=[];fontSize=12;fontColor=default;labelBackgroundColor=none;" parent="47" vertex="1" connectable="0">
                    <mxGeometry x="-0.3432" y="1" relative="1" as="geometry">
                        <mxPoint x="-10" y="-1" as="offset"/>
                    </mxGeometry>
                </mxCell>
                <mxCell id="79" style="edgeStyle=none;html=1;exitX=0.5;exitY=1;exitDx=0;exitDy=0;entryX=0.5;entryY=0;entryDx=0;entryDy=0;fontSize=12;fontColor=#FFFFFF;" parent="1" source="36" target="78" edge="1">
                    <mxGeometry relative="1" as="geometry"/>
                </mxCell>
                <mxCell id="80" value="Ne rien faire" style="edgeLabel;html=1;align=center;verticalAlign=middle;resizable=0;points=[];fontSize=12;fontColor=default;labelBackgroundColor=none;" parent="79" vertex="1" connectable="0">
                    <mxGeometry x="-0.325" y="1" relative="1" as="geometry">
                        <mxPoint as="offset"/>
                    </mxGeometry>
                </mxCell>
                <mxCell id="36" value="Vous avez dans votre ligne de mire un enfant portant une grenade pouvant tuer un groupe de soldats." style="rhombus;whiteSpace=wrap;html=1;labelBackgroundColor=none;fillColor=#FFFFFF;labelBorderColor=none;fontColor=#000000;fontSize=12;spacingLeft=35;spacingRight=35;rounded=1;spacingTop=8;" parent="1" vertex="1">
                    <mxGeometry x="650" y="580" width="200" height="152.75" as="geometry"/>
                </mxCell>
                <mxCell id="50" style="edgeStyle=none;html=1;exitX=0.5;exitY=1;exitDx=0;exitDy=0;entryX=0.5;entryY=0;entryDx=0;entryDy=0;fontSize=12;fontColor=#FFFFFF;" parent="1" source="46" target="49" edge="1">
                    <mxGeometry relative="1" as="geometry"/>
                </mxCell>
                <mxCell id="46" value="Vous avez tué l'enfant, votre troupe n'est plus en danger mais vous devez partir vite." style="rounded=1;whiteSpace=wrap;html=1;labelBackgroundColor=none;fillColor=#FFFFFF;fontColor=#000000;spacingLeft=10;spacingRight=10;" parent="1" vertex="1">
                    <mxGeometry x="310" y="596.37" width="160" height="120" as="geometry"/>
                </mxCell>
                <mxCell id="55" style="edgeStyle=none;html=1;exitX=1;exitY=0.5;exitDx=0;exitDy=0;entryX=0;entryY=0.5;entryDx=0;entryDy=0;fontSize=12;fontColor=#FFFFFF;fillColor=#60a917;strokeColor=#2D7600;" parent="1" source="49" target="52" edge="1">
                    <mxGeometry relative="1" as="geometry"/>
                </mxCell>
                <mxCell id="82" value="Prendre le matériel et fuir" style="edgeLabel;html=1;align=center;verticalAlign=middle;resizable=0;points=[];fontSize=12;fontColor=default;labelBackgroundColor=none;" parent="55" vertex="1" connectable="0">
                    <mxGeometry x="-0.1155" relative="1" as="geometry">
                        <mxPoint as="offset"/>
                    </mxGeometry>
                </mxCell>
                <mxCell id="56" style="edgeStyle=none;html=1;exitX=0.5;exitY=1;exitDx=0;exitDy=0;entryX=0;entryY=0.5;entryDx=0;entryDy=0;fontSize=12;fontColor=#FFFFFF;" parent="1" source="49" target="61" edge="1">
                    <mxGeometry relative="1" as="geometry">
                        <Array as="points">
                            <mxPoint x="390" y="1215"/>
                        </Array>
                    </mxGeometry>
                </mxCell>
                <mxCell id="57" value="Continuer de se battre" style="edgeLabel;html=1;align=center;verticalAlign=middle;resizable=0;points=[];fontSize=12;fontColor=default;labelBackgroundColor=none;" parent="56" vertex="1" connectable="0">
                    <mxGeometry x="0.0441" relative="1" as="geometry">
                        <mxPoint x="-4" as="offset"/>
                    </mxGeometry>
                </mxCell>
                <mxCell id="59" style="edgeStyle=none;html=1;exitX=0;exitY=0.5;exitDx=0;exitDy=0;entryX=1;entryY=0.5;entryDx=0;entryDy=0;fontSize=12;fontColor=#FFFFFF;" parent="1" source="49" target="54" edge="1">
                    <mxGeometry relative="1" as="geometry"/>
                </mxCell>
                <mxCell id="60" value="attendre" style="edgeLabel;html=1;align=center;verticalAlign=middle;resizable=0;points=[];fontSize=12;fontColor=default;labelBackgroundColor=none;" parent="59" vertex="1" connectable="0">
                    <mxGeometry x="-0.2883" relative="1" as="geometry">
                        <mxPoint x="-9" as="offset"/>
                    </mxGeometry>
                </mxCell>
                <mxCell id="49" value="Des ennemis se dirigent vers vous." style="rhombus;whiteSpace=wrap;html=1;labelBackgroundColor=none;fillColor=#FFFFFF;labelBorderColor=none;fontColor=#000000;fontSize=12;spacingLeft=35;spacingRight=35;rounded=1;" parent="1" vertex="1">
                    <mxGeometry x="290" y="945" width="200" height="150.5" as="geometry"/>
                </mxCell>
                <mxCell id="83" style="edgeStyle=none;html=1;exitX=1;exitY=0.5;exitDx=0;exitDy=0;entryX=0.5;entryY=0;entryDx=0;entryDy=0;fontSize=12;fontColor=#FFFFFF;fillColor=#60a917;strokeColor=#2D7600;" parent="1" source="52" target="61" edge="1">
                    <mxGeometry relative="1" as="geometry">
                        <Array as="points">
                            <mxPoint x="1040" y="1020"/>
                        </Array>
                    </mxGeometry>
                </mxCell>
                <mxCell id="52" value="Vous et vos coéquipiers êtes parti à temps, vous retourner au camp." style="rounded=1;whiteSpace=wrap;html=1;labelBackgroundColor=none;fillColor=#FFFFFF;fontColor=#000000;spacingLeft=10;spacingRight=10;" parent="1" vertex="1">
                    <mxGeometry x="670" y="960.5" width="160" height="119.5" as="geometry"/>
                </mxCell>
                <mxCell id="70" style="edgeStyle=none;html=1;exitX=0.5;exitY=0;exitDx=0;exitDy=0;entryX=0;entryY=0.5;entryDx=0;entryDy=0;fontSize=12;fontColor=#FFFFFF;" parent="1" source="54" target="29" edge="1">
                    <mxGeometry relative="1" as="geometry">
                        <Array as="points">
                            <mxPoint x="130" y="530"/>
                            <mxPoint x="530" y="530"/>
                            <mxPoint x="530" y="100"/>
                        </Array>
                    </mxGeometry>
                </mxCell>
                <mxCell id="54" value="Vous êtes mort." style="rounded=1;whiteSpace=wrap;html=1;labelBackgroundColor=none;fillColor=#FFFFFF;fontColor=#000000;" parent="1" vertex="1">
                    <mxGeometry x="50" y="960.5" width="160" height="120.5" as="geometry"/>
                </mxCell>
                <mxCell id="65" style="edgeStyle=none;html=1;exitX=0.5;exitY=1;exitDx=0;exitDy=0;entryX=0.5;entryY=0;entryDx=0;entryDy=0;fontSize=12;fontColor=#FFFFFF;" parent="1" source="61" target="63" edge="1">
                    <mxGeometry relative="1" as="geometry"/>
                </mxCell>
                <mxCell id="66" value="oui" style="edgeLabel;html=1;align=center;verticalAlign=middle;resizable=0;points=[];fontSize=12;fontColor=default;spacingRight=3;labelBackgroundColor=none;" parent="65" vertex="1" connectable="0">
                    <mxGeometry x="-0.2944" y="1" relative="1" as="geometry">
                        <mxPoint as="offset"/>
                    </mxGeometry>
                </mxCell>
                <mxCell id="67" style="edgeStyle=none;html=1;exitX=1;exitY=0.5;exitDx=0;exitDy=0;entryX=0;entryY=0.5;entryDx=0;entryDy=0;fontSize=12;fontColor=#FFFFFF;" parent="1" source="61" target="64" edge="1">
                    <mxGeometry relative="1" as="geometry"/>
                </mxCell>
                <mxCell id="68" value="non" style="edgeLabel;html=1;align=center;verticalAlign=middle;resizable=0;points=[];fontSize=12;fontColor=default;spacingLeft=10;labelBackgroundColor=none;" parent="67" vertex="1" connectable="0">
                    <mxGeometry x="-0.3529" relative="1" as="geometry">
                        <mxPoint as="offset"/>
                    </mxGeometry>
                </mxCell>
                <mxCell id="61" value="Il y a une embuscade lors de votre retour, avez vous assez de munition?" style="rhombus;whiteSpace=wrap;html=1;labelBackgroundColor=none;fillColor=#60a917;labelBorderColor=none;fontColor=#ffffff;fontSize=12;strokeColor=#2D7600;spacingLeft=25;spacingRight=25;rounded=1;" parent="1" vertex="1">
                    <mxGeometry x="940" y="1140" width="200" height="150" as="geometry"/>
                </mxCell>
                <mxCell id="63" value="Vous survivez !" style="rounded=1;whiteSpace=wrap;html=1;labelBackgroundColor=none;fillColor=#FFFFFF;fontColor=#000000;" parent="1" vertex="1">
                    <mxGeometry x="960" y="1340" width="160" height="120" as="geometry"/>
                </mxCell>
                <mxCell id="69" style="edgeStyle=none;html=1;exitX=0.528;exitY=0.002;exitDx=0;exitDy=0;fontSize=12;fontColor=#FFFFFF;exitPerimeter=0;" parent="1" edge="1">
                    <mxGeometry relative="1" as="geometry">
                        <mxPoint x="1290" y="230" as="targetPoint"/>
                        <Array as="points">
                            <mxPoint x="1290" y="720"/>
                        </Array>
                        <mxPoint x="1286.48" y="1156.1165" as="sourcePoint"/>
                    </mxGeometry>
                </mxCell>
                <mxCell id="64" value="Vous mourrez." style="rounded=1;whiteSpace=wrap;html=1;labelBackgroundColor=none;fillColor=#FFFFFF;fontColor=#000000;" parent="1" vertex="1">
                    <mxGeometry x="1206" y="1155.8799999999999" width="160" height="118.25" as="geometry"/>
                </mxCell>
                <mxCell id="81" style="edgeStyle=none;html=1;exitX=1;exitY=0.5;exitDx=0;exitDy=0;fontSize=12;fontColor=#FFFFFF;" parent="1" source="78" edge="1">
                    <mxGeometry relative="1" as="geometry">
                        <mxPoint x="1290" y="670" as="targetPoint"/>
                        <Array as="points">
                            <mxPoint x="1290" y="840"/>
                        </Array>
                    </mxGeometry>
                </mxCell>
                <mxCell id="78" value="Vous êtes repéré et vous mourrez." style="rounded=1;whiteSpace=wrap;html=1;labelBackgroundColor=none;fillColor=#FFFFFF;fontColor=#000000;spacingLeft=10;spacingRight=10;" parent="1" vertex="1">
                    <mxGeometry x="670" y="780" width="160" height="120" as="geometry"/>
                </mxCell>
            </root>
        </mxGraphModel>
    </diagram>
</mxfile>